# xmcd
#
# Track frame offsets:
#	150
#	15672
#	30034
#	46191
#	60199
#	75650
#	90598
#	105001
#	119510
#	132842
#	146774
#	160564
#	173032
#	186803
#	200238
#	215289
#	227910
#	242954
#	256626
#
# Disc length: 3600 seconds
#
# Revision: 0
# Processed by: cddbd v1.4PL0 Copyright (c) Steve Scherf et al.
# Submitted via: EasyCDDAExtractor 4.6.0.1
#
DISCID=e80e0e13
DTITLE=Jimmie Rodgers -       Blue Yodel: The Recorded Legacy
DYEAR=1997
DGENRE=Country
TTITLE0=  Ben Dewberry's Final Run
TTITLE1=  The Brakeman's Blues
TTITLE2=  Memphis Yodel
TTITLE3=  The Soldier's Sweetheart
TTITLE4=  Blue Yodel # 1 (T. For Texas)
TTITLE5=  Away Out On The Mountain
TTITLE6=  In The Jailhouse Now
TTITLE7=  Blue Yodel # 3
TTITLE8=  Daddy And Home
TTITLE9=  My Little Lady
TTITLE10=  Blue Yodel No. 4
TTITLE11=  Waiting For A Train
TTITLE12=  Blue Yodel # 4
TTITLE13=  Train Whistle Blues
TTITLE14=  Drunkard's Child, A
TTITLE15=  My Blue Eyed Jane
TTITLE16=  For The Sake Of Days Gone By
TTITLE17=  The Mystery Of Number Five
TTITLE18=  Blue Yodel # 8
EXTD=
EXTT0=
EXTT1=
EXTT2=
EXTT3=
EXTT4=
EXTT5=
EXTT6=
EXTT7=
EXTT8=
EXTT9=
EXTT10=
EXTT11=
EXTT12=
EXTT13=
EXTT14=
EXTT15=
EXTT16=
EXTT17=
EXTT18=
PLAYORDER=
